<svg width="115" height="50" viewBox="0 0 115 50" fill="none" xmlns="http://www.w3.org/2000/svg">
<path d="M10.4062 13.5352C10.4062 13.2305 10.3594 12.957 10.2656 12.7148C10.1797 12.4648 10.0156 12.2383 9.77344 12.0352C9.53125 11.8242 9.19141 11.6172 8.75391 11.4141C8.31641 11.2109 7.75 11 7.05469 10.7812C6.28125 10.5312 5.54688 10.25 4.85156 9.9375C4.16406 9.625 3.55469 9.26172 3.02344 8.84766C2.5 8.42578 2.08594 7.9375 1.78125 7.38281C1.48438 6.82812 1.33594 6.18359 1.33594 5.44922C1.33594 4.73828 1.49219 4.09375 1.80469 3.51562C2.11719 2.92969 2.55469 2.42969 3.11719 2.01562C3.67969 1.59375 4.34375 1.26953 5.10938 1.04297C5.88281 0.816406 6.73047 0.703125 7.65234 0.703125C8.91016 0.703125 10.0078 0.929687 10.9453 1.38281C11.8828 1.83594 12.6094 2.45703 13.125 3.24609C13.6484 4.03516 13.9102 4.9375 13.9102 5.95312H10.418C10.418 5.45312 10.3125 5.01562 10.1016 4.64062C9.89844 4.25781 9.58594 3.95703 9.16406 3.73828C8.75 3.51953 8.22656 3.41016 7.59375 3.41016C6.98438 3.41016 6.47656 3.50391 6.07031 3.69141C5.66406 3.87109 5.35938 4.11719 5.15625 4.42969C4.95312 4.73438 4.85156 5.07812 4.85156 5.46094C4.85156 5.75 4.92188 6.01172 5.0625 6.24609C5.21094 6.48047 5.42969 6.69922 5.71875 6.90234C6.00781 7.10547 6.36328 7.29688 6.78516 7.47656C7.20703 7.65625 7.69531 7.83203 8.25 8.00391C9.17969 8.28516 9.99609 8.60156 10.6992 8.95312C11.4102 9.30469 12.0039 9.69922 12.4805 10.1367C12.957 10.5742 13.3164 11.0703 13.5586 11.625C13.8008 12.1797 13.9219 12.8086 13.9219 13.5117C13.9219 14.2539 13.7773 14.918 13.4883 15.5039C13.1992 16.0898 12.7812 16.5859 12.2344 16.9922C11.6875 17.3984 11.0352 17.707 10.2773 17.918C9.51953 18.1289 8.67188 18.2344 7.73438 18.2344C6.89062 18.2344 6.05859 18.125 5.23828 17.9062C4.41797 17.6797 3.67188 17.3398 3 16.8867C2.33594 16.4336 1.80469 15.8555 1.40625 15.1523C1.00781 14.4492 0.808594 13.6172 0.808594 12.6562H4.33594C4.33594 13.1875 4.41797 13.6367 4.58203 14.0039C4.74609 14.3711 4.97656 14.668 5.27344 14.8945C5.57812 15.1211 5.9375 15.2852 6.35156 15.3867C6.77344 15.4883 7.23438 15.5391 7.73438 15.5391C8.34375 15.5391 8.84375 15.4531 9.23438 15.2812C9.63281 15.1094 9.92578 14.8711 10.1133 14.5664C10.3086 14.2617 10.4062 13.918 10.4062 13.5352ZM27.7617 15.2578V18H18.6797V15.2578H27.7617ZM19.8281 0.9375V18H16.3125V0.9375H19.8281ZM26.5781 7.88672V10.5586H18.6797V7.88672H26.5781ZM27.75 0.9375V3.69141H18.6797V0.9375H27.75ZM31.418 0.9375H34.3945L38.7773 13.4648L43.1602 0.9375H46.1367L39.9727 18H37.582L31.418 0.9375ZM29.8125 0.9375H32.7773L33.3164 13.1484V18H29.8125V0.9375ZM44.7773 0.9375H47.7539V18H44.2383V13.1484L44.7773 0.9375Z" fill="#111111"/>
<path d="M7.55859 23.4062V49H2.28516V23.4062H7.55859ZM17.7539 34.3398V38.4531H6.11719V34.3398H17.7539ZM18.9844 23.4062V27.5371H6.11719V23.4062H18.9844ZM27.6504 23.4062V49H22.3945V23.4062H27.6504ZM49.043 44.8867V49H36.1582V44.8867H49.043ZM37.8633 23.4062V49H32.5898V23.4062H37.8633ZM62.8242 27.7832L55.8633 49H50.2559L59.7656 23.4062H63.334L62.8242 27.7832ZM68.6074 49L61.6289 27.7832L61.0664 23.4062H64.6699L74.2324 49H68.6074ZM68.291 39.4727V43.6035H54.7734V39.4727H68.291Z" fill="#111111"/>
<path d="M75.2148 46.5566C75.2148 45.8066 75.4727 45.1797 75.9883 44.6758C76.5156 44.1719 77.2129 43.9199 78.0801 43.9199C78.9473 43.9199 79.6387 44.1719 80.1543 44.6758C80.6816 45.1797 80.9453 45.8066 80.9453 46.5566C80.9453 47.3066 80.6816 47.9336 80.1543 48.4375C79.6387 48.9414 78.9473 49.1934 78.0801 49.1934C77.2129 49.1934 76.5156 48.9414 75.9883 48.4375C75.4727 47.9336 75.2148 47.3066 75.2148 46.5566Z" fill="#102CBE"/>
<path d="M94.3328 27.7832L87.3719 49H81.7645L91.2742 23.4062H94.8426L94.3328 27.7832ZM100.116 49L93.1375 27.7832L92.575 23.4062H96.1785L105.741 49H100.116ZM99.7996 39.4727V43.6035H86.282V39.4727H99.7996ZM111.921 23.4062V49H106.666V23.4062H111.921Z" fill="#111111"/>
</svg>
